<?xml version="1.0" encoding="UTF-8" standalone="no"?>
<!DOCTYPE svg PUBLIC "-//W3C//DTD SVG 1.1//EN" "http://www.w3.org/Graphics/SVG/1.1/DTD/svg11.dtd">
<svg width="100%" height="100%" viewBox="0 0 1024 1024" version="1.1" xmlns="http://www.w3.org/2000/svg" xmlns:xlink="http://www.w3.org/1999/xlink" xml:space="preserve" xmlns:serif="http://www.serif.com/" style="fill-rule:evenodd;clip-rule:evenodd;stroke-linejoin:round;stroke-miterlimit:2;">
    <g transform="matrix(0.988707,0,0,0.943893,7.55795,6.12403)">
        <rect x="-8.56" y="-6.929" width="1038.25" height="1087.86" style="fill:rgb(38,197,229);"/>
    </g>
    <path d="M235.201,655.302C196.497,614.049 173.762,563.77 173.762,509.54C173.762,369.52 325.321,255.842 512,255.842C698.679,255.842 850.238,369.52 850.238,509.54C850.238,649.559 698.679,763.237 512,763.237C439.1,763.237 371.556,745.902 316.301,716.431L175.713,768.158L235.201,655.302ZM583.514,337.628C592.635,339.117 599.654,346.983 600.03,356.352L600.03,663.524C599.831,668.479 599.167,669.825 597.879,672.29C592.544,682.499 576.955,685.533 568.242,677.127C564.602,673.617 562.676,668.635 562.471,663.524L562.471,356.352C562.658,351.689 563.14,350.925 563.974,348.959C567.123,341.536 575.277,336.96 583.514,337.628ZM734.245,394.227C737.915,394.702 738.495,395.066 740.043,395.754C745.915,398.365 750.239,404.141 751.067,410.589C751.204,411.656 751.187,411.928 751.221,413.001L751.221,608.821C750.76,623.275 731.704,633.627 719.816,622.784C716.544,619.799 714.381,615.628 713.816,611.233C713.68,610.166 713.697,609.895 713.662,608.821L713.662,413.001C713.788,409.055 714.207,407.976 715.035,405.923C717.593,399.577 723.79,394.89 730.638,394.227C732.951,394.003 733.502,394.179 734.245,394.227ZM507.493,395.165C511.103,395.507 511.684,395.838 513.227,396.452C519.438,398.922 524.1,404.906 524.945,411.625C525.076,412.67 525.06,412.937 525.093,413.989L525.093,606.758C524.78,616.759 516.234,625.619 506.314,625.619C497.286,625.619 488.829,618.239 487.682,609.122C487.551,608.076 487.567,607.81 487.534,606.758L487.534,413.989C487.648,410.348 487.941,409.745 488.453,408.16C490.64,401.402 496.896,396.172 503.96,395.276C506.224,394.989 506.765,395.142 507.493,395.165ZM658.466,453.585C661.638,453.783 662.669,454.135 664.516,454.859C671.019,457.408 675.825,463.84 676.405,470.873C676.462,471.564 676.455,471.738 676.469,472.43L676.469,553.163C676.214,565.558 662.584,575.327 650.863,570.734C643.883,567.998 639.068,560.805 638.91,553.163L638.91,472.43C638.976,469.239 639.284,468.19 639.928,466.306C642.526,458.706 650.382,453.417 658.466,453.585ZM431.896,452.225C441.069,452.783 449.116,460.318 449.858,469.554C449.913,470.227 449.906,470.396 449.919,471.071L449.919,548.473C449.674,560.709 436.101,570.534 424.481,566.108C417.414,563.417 412.514,556.144 412.361,548.473L412.361,471.071C412.551,461.572 420.204,453.035 429.629,452.271C431.096,452.152 431.432,452.216 431.896,452.225ZM282.791,492.008C295.16,492.106 305.065,506.663 300.02,518.847C295.403,529.994 278.775,533.945 269.706,525.239C260.696,516.592 263.216,498.884 275.094,493.615C277.514,492.542 280.159,491.998 282.791,492.008ZM357.451,492.008C369.819,492.106 379.725,506.663 374.679,518.847C370.063,529.994 353.435,533.945 344.365,525.239C335.356,516.592 337.876,498.884 349.753,493.615C352.173,492.542 354.819,491.998 357.451,492.008Z" style="fill:white;"/>
</svg>
