<?xml version="1.0" encoding="UTF-8" standalone="no"?><!DOCTYPE svg PUBLIC "-//W3C//DTD SVG 1.1//EN" "http://www.w3.org/Graphics/SVG/1.1/DTD/svg11.dtd"><svg width="100%" height="100%" viewBox="0 0 296 225" version="1.1" xmlns="http://www.w3.org/2000/svg" xmlns:xlink="http://www.w3.org/1999/xlink" xml:space="preserve" xmlns:serif="http://www.serif.com/" style="fill-rule:evenodd;clip-rule:evenodd;stroke-linejoin:round;stroke-miterlimit:1.41421;"><path d="M26.879,174.757c-16.933,-18.047 -26.879,-40.043 -26.879,-63.768c0,-61.257 66.305,-110.989 147.974,-110.989c81.669,0 147.974,49.732 147.974,110.989c0,61.256 -66.305,110.989 -147.974,110.989c-31.893,0 -61.442,-7.584 -85.615,-20.478l-61.506,22.63l26.026,-49.373Zm152.381,-138.977c3.99,0.651 7.061,4.093 7.225,8.191l0,134.384c-0.086,2.167 -0.377,2.756 -0.94,3.834c-2.335,4.467 -9.154,5.794 -12.966,2.117c-1.592,-1.536 -2.435,-3.716 -2.525,-5.951l0,-134.384c0.082,-2.04 0.293,-2.374 0.658,-3.234c1.377,-3.247 4.944,-5.249 8.548,-4.957Zm65.943,24.761c1.605,0.208 1.859,0.367 2.536,0.668c2.569,1.143 4.461,3.669 4.823,6.491c0.06,0.466 0.052,0.585 0.067,1.054l0,85.669c-0.202,6.323 -8.538,10.852 -13.739,6.108c-1.431,-1.306 -2.378,-3.13 -2.624,-5.053c-0.06,-0.467 -0.053,-0.585 -0.068,-1.055l0,-85.669c0.055,-1.726 0.238,-2.198 0.601,-3.096c1.119,-2.776 3.829,-4.826 6.826,-5.117c1.011,-0.098 1.253,-0.021 1.578,0Zm-99.201,0.41c1.579,0.15 1.833,0.295 2.509,0.564c2.717,1.08 4.756,3.698 5.126,6.637c0.057,0.458 0.05,0.574 0.065,1.035l0,84.333c-0.137,4.375 -3.876,8.252 -8.216,8.252c-3.949,0 -7.649,-3.229 -8.151,-7.217c-0.057,-0.458 -0.05,-0.575 -0.065,-1.035l0,-84.333c0.05,-1.593 0.178,-1.857 0.403,-2.55c0.956,-2.957 3.693,-5.245 6.784,-5.637c0.99,-0.125 1.227,-0.058 1.545,-0.049Zm66.049,25.558c1.387,0.087 1.838,0.241 2.646,0.558c2.845,1.115 4.948,3.929 5.202,7.006c0.024,0.302 0.021,0.378 0.028,0.681l0,35.319c-0.112,5.423 -6.075,9.697 -11.202,7.687c-3.054,-1.196 -5.161,-4.344 -5.23,-7.687l0,-35.319c0.029,-1.396 0.164,-1.855 0.445,-2.679c1.137,-3.325 4.574,-5.639 8.111,-5.566Zm-99.121,-0.595c4.013,0.244 7.533,3.541 7.858,7.581c0.023,0.295 0.021,0.369 0.027,0.664l0,33.862c-0.108,5.354 -6.046,9.652 -11.13,7.716c-3.091,-1.178 -5.235,-4.36 -5.302,-7.716l0,-33.862c0.083,-4.155 3.431,-7.89 7.555,-8.224c0.642,-0.052 0.789,-0.024 0.992,-0.021Zm-65.231,17.405c5.41,0.043 9.744,6.411 7.537,11.741c-2.02,4.877 -9.294,6.605 -13.262,2.797c-3.942,-3.783 -2.839,-11.53 2.357,-13.835c1.059,-0.469 2.216,-0.708 3.368,-0.703Zm32.662,0c5.411,0.043 9.745,6.411 7.537,11.741c-2.02,4.877 -9.294,6.605 -13.262,2.797c-3.941,-3.783 -2.839,-11.53 2.357,-13.835c1.059,-0.469 2.216,-0.708 3.368,-0.703Z" style="fill:#fff;"/></svg>