<?xml version="1.0" encoding="UTF-8" standalone="no"?>
<!DOCTYPE svg PUBLIC "-//W3C//DTD SVG 1.1//EN" "http://www.w3.org/Graphics/SVG/1.1/DTD/svg11.dtd">
<svg width="100%" height="100%" viewBox="0 0 677 513" version="1.1" xmlns="http://www.w3.org/2000/svg" xmlns:xlink="http://www.w3.org/1999/xlink" xml:space="preserve" xmlns:serif="http://www.serif.com/" style="fill-rule:evenodd;clip-rule:evenodd;stroke-linejoin:round;stroke-miterlimit:2;">
    <path d="M61.439,399.46C22.735,358.207 0,307.928 0,253.698C0,113.678 151.559,0 338.238,0C524.916,0 676.476,113.678 676.476,253.698C676.476,393.717 524.916,507.395 338.238,507.395C265.338,507.395 197.794,490.059 142.539,460.589L1.951,512.316L61.439,399.46ZM409.752,81.786C418.873,83.275 425.892,91.141 426.268,100.51L426.268,407.682C426.069,412.637 425.405,413.983 424.117,416.448C418.782,426.657 403.193,429.691 394.479,421.285C390.84,417.774 388.914,412.792 388.709,407.682L388.709,100.51C388.896,95.847 389.378,95.083 390.212,93.117C393.361,85.694 401.515,81.118 409.752,81.786ZM560.483,138.385C564.152,138.86 564.733,139.223 566.281,139.912C572.153,142.522 576.477,148.299 577.305,154.747C577.442,155.814 577.425,156.085 577.459,157.159L577.459,352.979C576.997,367.433 557.942,377.785 546.054,366.942C542.781,363.957 540.618,359.786 540.054,355.391C539.917,354.324 539.934,354.053 539.9,352.979L539.9,157.159C540.026,153.212 540.445,152.134 541.273,150.081C543.831,143.734 550.028,139.048 556.876,138.385C559.189,138.161 559.74,138.337 560.483,138.385ZM333.731,139.322C337.341,139.665 337.922,139.996 339.465,140.61C345.676,143.08 350.338,149.064 351.183,155.783C351.314,156.828 351.298,157.094 351.331,158.146L351.331,350.916C351.018,360.917 342.472,369.777 332.552,369.777C323.524,369.777 315.067,362.397 313.92,353.28C313.789,352.234 313.805,351.968 313.772,350.916L313.772,158.146C313.886,154.506 314.178,153.903 314.691,152.318C316.878,145.56 323.134,140.33 330.198,139.434C332.461,139.147 333.003,139.299 333.731,139.322ZM484.704,197.743C487.876,197.941 488.907,198.293 490.754,199.017C497.257,201.566 502.063,207.998 502.643,215.031C502.7,215.722 502.693,215.896 502.707,216.588L502.707,297.321C502.452,309.716 488.822,319.485 477.101,314.892C470.121,312.156 465.306,304.962 465.148,297.321L465.148,216.588C465.214,213.396 465.522,212.348 466.166,210.464C468.764,202.864 476.62,197.575 484.704,197.743ZM258.134,196.383C267.307,196.94 275.354,204.476 276.096,213.711C276.15,214.385 276.144,214.554 276.157,215.229L276.157,292.63C275.912,304.867 262.339,314.692 250.719,310.266C243.652,307.574 238.752,300.302 238.598,292.63L238.598,215.229C238.789,205.73 246.442,197.193 255.867,196.429C257.334,196.31 257.67,196.374 258.134,196.383ZM109.029,236.166C121.397,236.264 131.303,250.821 126.257,263.005C121.641,274.152 105.013,278.102 95.944,269.397C86.934,260.75 89.454,243.042 101.332,237.773C103.752,236.7 106.397,236.156 109.029,236.166ZM183.689,236.166C196.057,236.264 205.963,250.821 200.917,263.005C196.301,274.152 179.673,278.102 170.603,269.397C161.594,260.75 164.113,243.042 175.991,237.773C178.411,236.7 181.056,236.156 183.689,236.166Z" style="fill:white;"/>
</svg>
